<?xml version="1.0" encoding="utf-8"?>
<svg version="1.1" id="Calque_2" xmlns="http://www.w3.org/2000/svg" xmlns:xlink="http://www.w3.org/1999/xlink" x="0px" y="0px"
	 viewBox="0 0 422.73 276.041" enable-background="new 0 0 422.73 276.041" xml:space="preserve">
<path id="foreground" fill-rule="evenodd" clip-rule="evenodd" fill="#fff900" stroke="#1D1D1B" stroke-width="0.25" stroke-miterlimit="10" d="
	M27.799,134.844l0.09,32.22l20.61-0.9c0,0-1.884,0.334-2.25,0.45c-0.366,0.116-0.855,1.409-0.81,1.8s0.9,1.62,0.9,1.62l0.36-0.09
	c0,0,0.181,1.405,1.62,1.35s1.71-1.26,1.71-1.26l9.18-0.18c0,0,0.116,1.156,1.98,1.08s1.986-1.561,1.98-1.98l0.99-0.09
	c0,0,0.199,1.457,1.53,1.44h0.72l0.36-4.77l20.34,0.36l23.31,0.36l17.82,0.45l0.54,9.36l12.87,0.63l7.74-0.72l22.59,0.72l0.09,1.08
	l21.15,1.17l8.01-0.81l70.56,1.89l0.09,1.62l43.29,3.06l6.84-1.44l56.34,3.15l0.09,1.8l16.11,0.72l28.44-14.67V57.444l-14.58-31.68
	l-12.24-26.01h-16.56l-50.13,18.9l-32.31-5.22l-27.09,27.63l-63.99,24.39l-15.93-6.3l-14.58,18.36l-34.02,13.5l-0.18,3.87l-2.25,0.9
	l0.63,0.9l-0.09,3.42l-23.04,8.19l-4.05-3.51l-4.14,6.57l-6.21,2.25l-0.27,8.64l-24.12-2.25l-1.98,0.63l-23.49-1.98l-6.84,3.78
	l-2.52-4.23l-2.43,6.75l-5.4,2.61l-1.98-3.51l-1.89,5.22l-3.96,2.34l-0.09,1.71L27.799,134.844z"/>
</svg>
