<svg id="Calque_1" data-name="Calque 1" xmlns="http://www.w3.org/2000/svg" xmlns:xlink="http://www.w3.org/1999/xlink" viewBox="0 0 845 551">
<path id="foreground" d="M54.24,270l.18,64.38,41.19-1.8s-3.77.67-4.5.9-1.71,2.82-1.62,3.6a15,15,0,0,0,1.8,3.24l.72-.18a3.09,3.09,0,0,0,3.24,2.69,3.47,3.47,0,0,0,3.41-2.51l18.35-.36s.23,2.31,3.95,2.16a3.74,3.74,0,0,0,4-4l2-.18s.4,2.91,3.06,2.88h1.44l.71-9.54,40.65.72,46.58.72,35.61.9L256,352.32l25.72,1.25,15.47-1.43,45.14,1.43.18,2.16,42.26,2.34,16-1.62,141,3.78.18,3.24,86.5,6.11,13.67-2.88L754.72,373l.18,3.59L787.09,378l56.83-29.31V115.29L814.79,52,790.33,0H757.24L657.07,37.78,592.5,27.35,538.37,82.56,410.51,131.29,378.67,118.7l-29.13,36.69-68,27-.36,7.73-4.49,1.8,1.25,1.8-.18,6.83-46,16.37-8.1-7L215.38,223,203,227.51l-.54,17.26-48.19-4.49-4,1.25-46.94-3.95-13.67,7.55-5-8.45-4.86,13.49L69,255.38l-4-7L61.26,258.8l-7.91,4.68-.18,3.41Z" style="stroke-miterlimit:10;stroke-width:0px"/></g></svg>