<?xml version="1.0" encoding="utf-8"?>
<svg version="1.1" xmlns="http://www.w3.org/2000/svg" xmlns:xlink="http://www.w3.org/1999/xlink" x="0px" y="0px"
	 viewBox="0 0 500.276 351.89" enable-background="new 0 0 500.276 351.89" xml:space="preserve">
<path id="foreground" fill-rule="evenodd" clip-rule="evenodd" fill="#00ff99" stroke="#000000" stroke-width="0.25" stroke-miterlimit="10" d="
	M300.26,287.929c1.36-0.484,9.405-1.115,10.44-1.26l38.88-1.62c0,0-0.156,1.313-0.6,1.98c-0.444,0.667-0.157,1.124,0.12,2.4
	c0.277,1.276-0.307,2.699-0.72,5.04c-0.413,2.34-1.255,5.28-1.56,7.2c-0.305,1.92-0.752,5.648-0.9,6.9
	c-0.148,1.252-0.06,4.14-0.06,4.14c1.7,0.505,3.365,0.25,3.9-0.84s0.687-1.675,1.2,0c0.513,1.675,1.02,5.312,1.44,7.32
	c0.421,2.008,2.135,0.894,2.1,0.36s0.457-0.423,1.02,0.06c0.562,0.484,1.678,1.078,2.76,0.72s-0.065-1.827-0.54-2.52
	c-0.475-0.693-0.603-1.042-0.24-2.82c0.363-1.778,1.161-8.026,1.2-9c0.039-0.974-0.363-3.274,0.3-2.52
	c0.663,0.754,1.375,0.316,0.84-0.96s6.12,0.48,6.12,0.48s2.069,0.328,2.76,1.14c0.691,0.812-0.121,3.947-0.3,6.36
	c-0.179,2.413-0.894,4.855-1.32,6.54c-0.426,1.684,1.907,2.745,2.7,1.92c0.793-0.825,2.051,0.755,3.72,0.84
	c1.669,0.085,0.828-1.113-0.06-1.86s-0.626-0.981,0.54-0.96c1.166,0.021,5.261,0.35,6.36,0.42s3.148,0.247,4.56,0.3
	c1.412,0.053,6.774,0.982,8.04,1.08c1.266,0.098,7.089-0.806,8.22-0.9c1.131-0.095,0.53-1.141,0.18-1.62
	c-0.35-0.479-2.7-0.42-2.7-0.42l-0.54-8.76l-0.54-2.34l3.36,1.86l2.16-2.04l-1.26-2.28c0.471-0.59-3.24-7.32-3.24-7.32
	c0.647-0.44-1.92-4.38-1.92-4.38c0.659-2.17,0.634-4.128-1.2-4.74c-1.834-0.612-2.58,0.78-2.58,0.78s0.306-0.986-1.98-0.96
	s-2.58,3.12-2.58,3.12h-7.02c1.069-2.639,0.42-4.347-1.14-4.98c-1.56-0.633-2.112,1.459-2.4,2.64s-0.991,1.754-0.96,0.06
	s-2.844-2.72-3.6-2.94c-0.756-0.219,0.408-1.403,0.66-2.16c0.253-0.757,1.44-2.22,1.44-2.22l124.68,0.24v-131.28l-43.08-1.08
	l-33.6,15.3l0.3,9.78l0.3,0.54l0.54,70.56l-66.84,0.36l-0.78-117.9l0.3-0.72v-10.14l-67.8-1.98v-2.04l1.32-2.04v-1.02h-1.56v-2.58
	l0.78,0.12c0.605-0.308,1.32-2.16,1.32-2.16l-12.42-0.42c-0.051,0.681-1.2,1.32-1.2,1.32l2.04,0.48v2.58
	c-1.954-0.023-4.92-1.02-4.92-1.02l-1.86,2.82c0.989,0.977,3.42,1.74,3.42,1.74l0.06,1.32l-0.36,0.6l-63.36-1.86l-8.34,25.74
	l0.3,8.7h0.48l0.78,104.4l-22.68,1.62l-0.78-60.24l-74.52-5.64L-0.4,209.989v86.46l73.56-0.84c0,0,0.515,4.115,0.54,4.74
	c0.025,0.625-0.722,3.379-1.2,3.72c-0.478,0.341-2.692,1.795-2.46,4.68c0.232,2.885,1.517,4.513,1.44,5.22c0,0-3.209,0.54-3.6,1.44
	c-0.391,0.9-1.377,4.226-1.98,5.52c-0.603,1.294-1.658,2.179-1.14,3.48c0.518,1.301,0.524,4.422,1.68,4.5
	c1.156,0.078,2.22-0.54,2.22-0.54s-0.503,1.76,0.18,4.56s1.58,7.991,1.8,10.32s0.143,4.478,0.48,4.8s0.716,1.137,0.72,2.22
	s0.197,1.607,1.14,1.62c0.943,0.013,4.92-0.18,4.92-0.18l0.06-2.7c0,0,1.546-0.515,1.5-2.34c-0.046-1.825-0.199-9.357,0-11.34
	c0.199-1.982,0.766-4.922,0.72-5.52c-0.046-0.598,0.673-0.919,1.32-1.02c0.647-0.1,0.72-0.06,0.72-0.06s-0.424,8.29,0.48,8.7
	c0.904,0.409,3.131,0.863,3.54,1.2c0.409,0.337,0.845,1.231,0.84,1.92c-0.005,0.689,2.808-0.698,3.06,0.66
	c0.252,1.358-0.401,3.277-1.26,4.44s-2.781,4.416-0.96,5.22c1.821,0.804,3.166-0.325,3.9-1.62c0.734-1.295,1.58-2.941,1.68-2.22
	c0.1,0.721-0.688,4.013,1.5,4.14c2.188,0.127,3.13-0.881,2.94-2.04c-0.19-1.159-1.234-2.537-0.9-4.26
	c0.334-1.723,2.035-6.097,2.28-8.28s-0.78-6.84-0.78-6.84l3.6-0.3l-0.36,3.36l1.5,0.72l2.34-2.58l-0.06,5.82l1.5-0.96
	c0,0,0.654,0.809,1.08,0.66c0.426-0.149,1.035-0.899,1.86-0.72c0.825,0.179,1.353-0.247,1.68-1.14c0.327-0.893,0.455-1.564-0.12-3.9
	c-0.575-2.336-2.01-6.472-2.7-7.86c-0.69-1.388-0.722-4.95-0.72-6.24c0.003-1.29-0.478-2.247-1.2-2.7l-0.48-8.58
	c0,0,3.172,0.375,4.32,0.78c1.148,0.406,1.761-0.497,2.34-2.58c0.579-2.083,1.409-1.94,2.16-2.04c0.751-0.1,1.98-0.66,1.98-0.66
	s1.326,6.936,1.02,9c-0.306,2.064-1.245,6.677-0.24,8.88s2.578,4.536,1.56,6.72s-0.104,3.387,0.6,3.72
	c0.704,0.333,2.316,1.054,3.18,0.78s0.415-2.373,0.6-4.44c0.185-2.067,1.136-8.69,1.32-10.8c0.184-2.11,1.92-7.86,1.92-7.86
	l1.02-0.42l-1.02-4.86l25.08,0.78l8.46-0.66l38.28,0.48l39.96-1.26l27.9-0.66c0,0,2.032,2.311,2.28,3.18
	c0.248,0.869,1.713,3.355,1.92,1.74s2.516-1.339,3.36-2.16c0.844-0.821,0.12-3.24,0.12-3.24l-0.78-3.18l1.62,0.36
	c0,0,0.357,3.531,2.7,3.54c2.343,0.009,3.803-1.172,4.32-2.76l16.38-0.9l-0.06-4.2C298.76,292.609,297.282,287.473,300.26,287.929z"
	/>
</svg>
