<svg id="Calque_1" data-name="Calque 1" xmlns="http://www.w3.org/2000/svg" viewBox="0 0 845 551"><path id="foreground" d="M688.74,300.18l48.06,3.36-.11,25.3L843.8,355,844.89.45l-27.5.1L735,74.07l.33,22.83,5.67.31-1.68,85.35s-96.18.71-107,.7-15.07,0-16.14.51-13,10.27-13,10.27l0,9.89.58.58,0,9.89-20.51.06L575.46,220l0,6.25,2.18.16,0,5.08s-7.92,0-9.89-.33a9.83,9.83,0,0,0-3.78.13l-14.54-.06L486,230.9l-1.59-.88-11.2-.05c-3.54,0-9.89-.19-9.89-.19v1.31l-38.39-.31-.43-35.34s.39-6.66,0-7-15.12-15.28-15.78-15.34-72.13.13-72.13.13l.32-39.41-.58-.88,0-3.19h.43l-.08-13.67c-.51-.45-73.68-66.31-75.18-66.64S0,59.75,0,59.75v239.7l107.14.47,156.46.68,38.4-2.45,1.43,4.52a60.35,60.35,0,0,1-5.55,5.93c-1.67,1.27-1.38,3.77-.89,4.94s1.19-1.21,1-1.88,2.92-.86,2.92-.86l4.23-4.35s.62,2.46,1,4.95.72,3.63,3.91,3.51,1.21-1.11.88-2.61-1.7-10.34-1.7-10.34l16.88-2.39-1.58-4.52,11.2-1.11.05-11.06,72.85.32,16.15-1.53V279.2l127.82.12,64.5,15.84,60.73,4.26-1.3,6c-.43,2-.88,4.5-1.05,5.52s.24,1.39,1.74,1.46,5.88.08,6-.41,1.38-.8,2.33-.72,2.86-.72,1-1.74-.62-3.66-.27-4.65S687,300.05,688.74,300.18Z" style="stroke-miterlimit:10;stroke-width:0.6060000061988831px"/></svg>