<svg id="Calque_1" data-name="Calque 1" xmlns="http://www.w3.org/2000/svg" viewBox="0 0 845 551"><path id="foreground" d="M486,452.77c2.49-.89,17.19-2,19.08-2.3l71-3a10.37,10.37,0,0,1-1.09,3.61c-.81,1.22-.29,2.06.22,4.39s-.56,4.93-1.32,9.21-2.29,9.64-2.85,13.15-1.37,10.32-1.64,12.61-.11,7.56-.11,7.56c3.1.93,6.15.46,7.12-1.53s1.26-3.06,2.2,0,1.86,9.7,2.63,13.37,3.9,1.63,3.83.66.84-.77,1.87.11a5.52,5.52,0,0,0,5,1.31c2-.65-.12-3.33-1-4.6s-1.1-1.9-.44-5.15,2.13-14.67,2.2-16.45-.67-6,.54-4.6,2.52.58,1.54-1.75,11.18.87,11.18.87,3.78.6,5,2.09-.22,7.21-.54,11.62a70,70,0,0,1-2.42,11.95c-.77,3.07,3.49,5,4.94,3.5s3.74,1.38,6.79,1.54,1.52-2-.11-3.4-1.14-1.79,1-1.75,9.61.64,11.62.76,5.75.45,8.33.55,12.38,1.8,14.69,2,13-1.47,15-1.64,1-2.08.33-3-4.94-.77-4.94-.77l-1-16-1-4.28,6.14,3.4,3.95-3.73L671.59,479c.87-1.08-5.91-13.38-5.91-13.38,1.18-.8-3.51-8-3.51-8,1.2-4,1.16-7.54-2.2-8.66s-4.71,1.43-4.71,1.43.56-1.8-3.62-1.76-4.71,5.7-4.71,5.7H634.1c2-4.82.77-7.94-2.08-9.1s-3.86,2.67-4.38,4.83-1.81,3.2-1.76.11-5.19-5-6.58-5.37.75-2.57,1.21-3.95a20.47,20.47,0,0,1,2.63-4.06l222.34.43-.86-240-72.39-1.81-61.39,28,.55,17.87.55,1,1,128.92-122.12.66-1.42-215.41.55-1.32V136.51l-123.88-3.62v-3.73l2.41-3.72v-1.87h-2.85v-4.71l1.43.22c1.11-.56,2.41-4,2.41-4l-22.69-.76c-.09,1.24-2.19,2.41-2.19,2.41l3.72.87v4.72c-3.57,0-9-1.87-9-1.87l-3.4,5.16c1.8,1.78,6.25,3.18,6.25,3.18l.11,2.41-.66,1.09-115.76-3.4-15.24,47,.55,15.9H312l1.43,190.74-41.44,3L270.6,275.51l-136.15-10.3L.14,295.88.08,467.61l71-.81s1,7.52,1,8.66-1.32,6.17-2.19,6.8-4.92,3.28-4.5,8.55,2.78,8.24,2.64,9.53c0,0-5.87,1-6.58,2.64s-2.52,7.72-3.62,10.08-3,4-2.08,6.36,1,8.08,3.07,8.22a8.05,8.05,0,0,0,4-1,17.71,17.71,0,0,0,.33,8.34,176.44,176.44,0,0,1,3.29,18.85c.4,4.26.26,8.18.88,8.77a6,6,0,0,1,1.31,4.06c0,2,.36,2.93,2.09,3s9-.33,9-.33l.1-4.94a4.31,4.31,0,0,0,2.75-4.27c-.09-3.34-.37-17.1,0-20.72s1.39-9,1.31-10.09,1.23-1.67,2.41-1.86a4,4,0,0,1,1.32-.11s-.78,15.15.87,15.9,5.73,1.57,6.47,2.19a5.28,5.28,0,0,1,1.54,3.51c0,1.26,5.13-1.28,5.59,1.2s-.73,6-2.3,8.12-5.09,8.06-1.76,9.53,5.79-.59,7.13-3,2.88-5.37,3.07-4-1.26,7.33,2.74,7.56,5.72-1.61,5.37-3.73-2.26-4.63-1.65-7.78,3.72-11.14,4.17-15.13-1.42-12.49-1.42-12.49l6.57-.55-.66,6.14,2.75,1.31,4.27-4.71L130.28,542l2.74-1.75s1.2,1.47,2,1.2,1.9-1.64,3.4-1.31,2.47-.45,3.07-2.09.83-2.85-.22-7.12a100.16,100.16,0,0,0-4.93-14.36c-1.26-2.54-1.32-9.05-1.32-11.4s-.87-4.11-2.19-4.93l-.87-15.68a57.65,57.65,0,0,1,7.89,1.42c2.1.75,3.22-.9,4.27-4.71s2.58-3.54,3.95-3.73a17.36,17.36,0,0,0,3.62-1.2s2.42,12.67,1.86,16.44-2.27,12.2-.44,16.22,4.71,8.29,2.85,12.28-.19,6.19,1.1,6.8,4.23,1.92,5.81,1.42.76-4.33,1.09-8.11,2.08-15.87,2.42-19.73,3.5-14.36,3.5-14.36l1.87-.77-1.87-8.88,45.83,1.43,15.45-1.21,69.94.88,73-2.3,51-1.21s3.72,4.22,4.17,5.81,3.13,6.13,3.51,3.18,4.59-2.45,6.14-4,.22-5.92.22-5.92l-1.43-5.81,3,.66s.65,6.45,4.93,6.47,6.95-2.14,7.9-5L483.37,469l-.11-7.67S480.56,451.94,486,452.77Z" style="stroke-miterlimit:10;stroke-width:0.4569999873638153px"/></svg>