<svg version="1.1" xmlns="http://www.w3.org/2000/svg" xmlns:xlink="http://www.w3.org/1999/xlink" x="0px" y="0px" viewBox="0 0 354.276 243.89" enable-background="new 0 0 354.276 243.89" xml:space="preserve">
		<path id="foreground" fill="#00ffff" stroke="#000000" stroke-width="0.25" stroke-miterlimit="10" d="M286.522,127.052
			c10.531,0.691,19.836,1.301,19.836,1.301v10.44l47.58,11.4V-0.587h-10.68l-38.04,34.26l0.18,9.42l2.34,0.12l-0.54,35.22
			c0,0-39.686,0.464-44.16,0.48c-4.474,0.016-6.218,0.006-6.66,0.24s-5.34,4.26-5.34,4.26v4.08l0.24,0.24v4.08l-8.46,0.06l-3.18,2.28
			v2.58l0.9,0.06v2.1c0,0-3.267,0.021-4.08-0.12c-0.813-0.141-1.56,0.06-1.56,0.06h-6h-26.16l-0.66-0.36c0,0-3.159,0-4.62,0
			s-4.08-0.06-4.08-0.06c0,0.193,0,0.54,0,0.54l-15.84-0.06l-0.24-14.58c0,0,0.147-2.748,0-2.88c-0.147-0.132-6.265-6.277-6.54-6.3
			s-29.76,0.18-29.76,0.18l0.06-16.26l-0.24-0.36v-1.32h0.18l-0.06-5.64c-0.211-0.182-30.52-27.225-31.14-27.36
			s-109.68,4.8-109.68,4.8l0.18,12.6v86.22h46.26h64.56l15.84-1.08l0.6,1.86c0,0-1.593,1.933-2.28,2.46s-0.562,1.558-0.36,2.04
			c0.202,0.482,0.488-0.504,0.42-0.78s1.2-0.36,1.2-0.36l1.74-1.8c0,0,0.26,1.013,0.42,2.04s0.303,1.495,1.62,1.44
			s0.496-0.461,0.36-1.08s-0.72-4.26-0.72-4.26l6.96-1.02l-0.66-1.86l4.62-0.48v-4.56h30.06l6.66-0.66v-1.02l52.74-0.18l26.64,6.42
			c0,0,12.597,0.826,25.066,1.645c0,0-0.354,1.685-0.526,2.495c-0.172,0.811-0.354,1.858-0.42,2.28s0.099,0.573,0.72,0.6
			c0.621,0.027,2.424,0.024,2.46-0.18c0.036-0.204,0.569-0.332,0.96-0.3s1.182-0.304,0.42-0.72s-0.262-1.51-0.12-1.92
			C285.679,128.603,285.806,127.005,286.522,127.052z"
		/>
</svg>
